Coordinates
version=1
nRows=8
nColumns=40
inDegrees=yes

Units are S.I. units (second, meters, Newtons, ...)
Angles are in degrees.

endheader
time	pelvis_tilt	pelvis_list	pelvis_rotation	pelvis_tx	pelvis_ty	pelvis_tz	hip_flexion_r	hip_adduction_r	hip_rotation_r	knee_angle_r	knee_angle_r_beta	ankle_angle_r	subtalar_angle_r	mtp_angle_r	hip_flexion_l	hip_adduction_l	hip_rotation_l	knee_angle_l	knee_angle_l_beta	ankle_angle_l	subtalar_angle_l	mtp_angle_l	lumbar_extension	lumbar_bending	lumbar_rotation	arm_flex_r	arm_add_r	arm_rot_r	elbow_flex_r	pro_sup_r	wrist_flex_r	wrist_dev_r	arm_flex_l	arm_add_l	arm_rot_l	elbow_flex_l	pro_sup_l	wrist_flex_l	wrist_dev_l
     44.96000000	     -5.39002877	     -6.09851134	     -2.82879600	      1.01208645	      0.92137562	      0.51404221	     17.26287376	      6.67381237	     -6.02522832	     23.45169174	     23.45169174	     12.77014670	     -1.97075953	     -0.94169340	     17.94244271	    -15.01534820	     -0.99272198	     58.68084518	     58.68084518	      7.05655244	    -19.08038454	     11.23389817	     -9.77852333	      7.49821699	      0.62253102	      4.72060466	    -14.79156262	    -10.50488342	     32.17591535	     45.76399146	      0.00000000	      0.00000000	     29.96668855	    -15.91559972	    -12.51742957	     55.55549378	     45.98409435	      0.00000000	      0.00000000
     44.98057143	     -5.06199143	     -6.12377867	     -2.13256935	      1.01137780	      0.91953775	      0.51597119	     17.26550109	      6.78850166	     -5.97515971	     24.81841148	     24.81841148	     13.62035307	     -3.31160068	     -1.19784399	     19.76787527	    -15.03331656	     -0.04873106	     61.07498368	     61.07498368	      7.39887804	    -19.23474505	     11.90624457	     -9.93697441	      7.32774477	      0.45378960	      6.86328479	    -14.73447509	    -10.60888603	     33.39842757	     45.74074308	      0.00000000	      0.00000000	     27.48379600	    -15.18469217	    -12.00650105	     53.65982577	     45.91496590	      0.00000000	      0.00000000
     45.00114286	     -4.64477342	     -6.06167278	     -1.41121204	      1.01063626	      0.91787356	      0.51776791	     17.12082798	      6.88967619	     -5.67193698	     26.10799997	     26.10799997	     14.63472752	     -4.94722448	     -0.67126079	     21.62397493	    -14.72509262	      1.07927050	     63.40559664	     63.40559664	      9.48323796	    -19.31974928	     17.45153379	    -10.16523838	      7.07388077	      0.54208978	      8.75745510	    -14.80859577	    -10.49936215	     35.34622993	     45.68758240	      0.00000000	      0.00000000	     25.75142765	    -14.40634270	    -10.34556929	     49.57214111	     45.80981028	      0.00000000	      0.00000000
     45.02171429	     -4.27491621	     -6.02019291	     -0.63908051	      1.00984941	      0.91593384	      0.51951668	     17.02438635	      6.97125814	     -5.64009705	     27.38569928	     27.38569928	     15.47527694	     -6.33767215	     -0.79503690	     23.36375975	    -14.63149349	      1.83741174	     65.02346134	     65.02346134	     10.13369966	    -19.43327191	     18.11257004	    -10.33998317	      6.85139848	      0.21226171	     11.11408788	    -14.68000773	    -10.54011844	     37.01193623	     45.64388154	      0.00000000	      0.00000000	     23.21680714	    -13.78789055	     -9.69951540	     47.08049051	     45.72688176	      0.00000000	      0.00000000
     45.04228571	     -3.91213681	     -6.01693125	      0.14208018	      1.00895958	      0.91405730	      0.52104026	     16.87642812	      7.12939807	     -5.50822051	     28.53073850	     28.53073850	     16.25536017	     -7.82585910	     -0.72706025	     25.08707767	    -14.53331136	      2.56486447	     66.13869703	     66.13869703	     11.26836257	    -19.50906798	     19.45901359	    -10.56711584	      6.65081603	     -0.19710894	     13.54600685	    -14.56157575	    -10.50066569	     38.87238389	     45.58874646	      0.00000000	      0.00000000	     20.80294076	    -13.16845943	     -8.87206574	     44.03608925	     45.62267905	      0.00000000	      0.00000000
     45.06285714	     -3.51001431	     -5.98723723	      0.92307415	      1.00803262	      0.91253077	      0.52229314	     16.57016397	      7.24123451	     -5.49423322	     29.46758788	     29.46758788	     17.21593663	     -8.92498340	      0.01993543	     26.71549652	    -14.33928456	      3.20557843	     66.67832842	     66.67832842	     13.23193074	    -19.55628886	     22.73986629	    -10.83617421	      6.42499972	      0.44522566	     15.10405658	    -15.12547792	    -10.05346068	     41.41056504	     45.49403154	      0.00000000	      0.00000000	     19.63778924	    -12.09022298	     -6.81274686	     39.22277423	     45.45001830	      0.00000000	      0.00000000
     45.08342857	     -3.20780757	     -5.91907428	      1.73299526	      1.00698718	      0.91112390	      0.52318778	     16.28745497	      7.27771984	     -5.58868415	     30.20360372	     30.20360372	     17.84731521	     -9.98364155	      0.02358358	     28.24431397	    -14.17409971	      3.58135169	     66.33688048	     66.33688048	     14.27205227	    -19.58812847	     22.83394873	    -11.02829694	      6.19110615	      0.12932022	     17.59470178	    -15.03171330	    -10.16348142	     43.35278593	     45.44464983	      0.00000000	      0.00000000	     16.96338646	    -11.46225345	     -6.23627413	     37.07240286	     45.35805695	      0.00000000	      0.00000000
     45.10400000	     -2.94898327	     -5.85422153	      2.51053659	      1.00576223	      0.91012417	      0.52375264	     15.93931381	      7.30887728	     -5.69594300	     30.71208796	     30.71208796	     18.58654220	    -10.76107875	      0.75831142	     29.69222237	    -13.94146154	      3.86559077	     65.32656845	     65.32656845	     15.70742119	    -19.61310428	     23.76653131	    -11.20710262	      5.95198535	      0.61203227	     19.13075639	    -15.65344222	     -9.93542232	     46.80477414	     45.34528741	      0.00000000	      0.00000000	     15.25215953	    -10.66614688	     -3.90570310	     33.43308582	     45.14904254	      0.00000000	      0.00000000
